<svg width="20mm" height="20mm" version="1.1" viewBox="0 0 20 20" xmlns="http://www.w3.org/2000/svg">
 <defs>
  <marker id="a" overflow="visible" orient="auto">
   <path transform="matrix(.4 0 0 .4 2.96 .4)" d="m-2.5-1c0 2.76-2.24 5-5 5s-5-2.24-5-5 2.24-5 5-5 5 2.24 5 5z" fill="#00f" fill-rule="evenodd" stroke="#00f" stroke-width="1pt"/>
  </marker>
  <marker id="DotM" overflow="visible" orient="auto">
   <path transform="matrix(.4 0 0 .4 2.96 .4)" d="m-2.5-1c0 2.76-2.24 5-5 5s-5-2.24-5-5 2.24-5 5-5 5 2.24 5 5z" fill="#00f" fill-rule="evenodd" stroke="#00f" stroke-width="1pt"/>
  </marker>
 </defs>
 <g fill="none">
  <path id="ch" d="m8.75 10h2.5" stroke="#f00" stroke-width=".1"/>
  <path id="cv" d="m10 8.75v2.5" stroke="#f00" stroke-width=".1"/>
  <path d="m9.25 6v8" stroke="#000" stroke-width=".6"/>
  <path d="m10.75 6v7.7599" stroke="#000" stroke-width=".6"/>
  <path id="pin-L:left:middle" d="m5 10h4.25" marker-start="url(#DotM)" stroke="#00f" stroke-width=".2"/>
  <path id="pin-R:right:middle" d="m15 10h-4.25" marker-start="url(#a)" stroke="#00f" stroke-width=".2"/>
  <text id="ref-des" x="10" y="5" font-family="sans-serif" font-size="2.5" letter-spacing="0px" stroke-width="0" word-spacing="0px" style="line-height:1.25" xml:space="preserve"><tspan x="10" y="5" fill="#00ff00" stroke-width="0" text-align="center" text-anchor="middle">C</tspan></text>
  <text id="value" x="10" y="15" dominant-baseline="text-before-edge" font-family="sans-serif" font-size="2.5" letter-spacing="0px" stroke-width="0" word-spacing="0px" style="line-height:1.25" xml:space="preserve"><tspan x="10" y="15" fill="#00ff00" stroke-width="0" text-align="center" text-anchor="middle">Value</tspan></text>
 </g>
</svg>
