<svg height="20mm" viewBox="0 0 20 20" width="20mm" xmlns="http://www.w3.org/2000/svg" xmlns:xlink="http://www.w3.org/1999/xlink"><marker id="a" orient="auto" overflow="visible" refX="0.0" refY="0.0"><path d="m-2.5-1c0 2.76-2.24 5-5 5s-5-2.24-5-5 2.24-5 5-5 5 2.24 5 5z" fill="#00f" fill-rule="evenodd" stroke="#00f" stroke-width="1pt" transform="matrix(.4 0 0 .4 2.96 .4)"/></marker><marker id="b" orient="auto" overflow="visible" refX="0.0" refY="0.0"><path d="m-2.5-1c0 2.76-2.24 5-5 5s-5-2.24-5-5 2.24-5 5-5 5 2.24 5 5z" fill="#00f" fill-rule="evenodd" stroke="#00f" stroke-width="1pt" transform="matrix(.4 0 0 .4 2.96 .4)"/></marker><g fill="none"><path d="m7.4999998 9.9999995h5.0000002" stroke="#f00" stroke-width=".1"/><path d="m9.9999995 7.4999997v5.0000003" stroke="#f00" stroke-width=".1"/><path d="m9.2499999 5.9999998v8.0000002" stroke="#000" stroke-width=".6"/></g><path d="m10.75 5.9999998v7.9999992" fill="#00f" stroke="#000" stroke-width=".6"/><g fill="none" stroke="#00f" stroke-width=".2"><path d="m4.9999997 9.9999995h4.2500003" marker-start="url(#b)"/><path d="m14.999999 9.9999995h-4.249999" marker-start="url(#a)"/></g></svg>