<svg height="20mm" viewBox="0 0 20 20" width="20mm" xmlns="http://www.w3.org/2000/svg" xmlns:xlink="http://www.w3.org/1999/xlink"><marker id="a" orient="auto" overflow="visible" refX="0.0" refY="0.0"><path d="m-2.5-1c0 2.76-2.24 5-5 5s-5-2.24-5-5 2.24-5 5-5 5 2.24 5 5z" fill="#00f" fill-rule="evenodd" stroke="#00f" stroke-width="1pt" transform="matrix(.4 0 0 .4 2.96 .4)"/></marker><marker id="b" orient="auto" overflow="visible" refX="0.0" refY="0.0"><path d="m-2.5-1c0 2.76-2.24 5-5 5s-5-2.24-5-5 2.24-5 5-5 5 2.24 5 5z" fill="#00f" fill-rule="evenodd" stroke="#00f" stroke-width="1pt" transform="matrix(.4 0 0 .4 2.96 .4)"/></marker><g fill="none"><path d="m7.5 10h5" stroke="#f00" stroke-width=".1"/><path d="m10 7.5v5" stroke="#f00" stroke-width=".1"/><path d="m9.25 6v8" stroke="#000" stroke-width=".6"/></g><path d="m10.75 6v8" fill="#00f" stroke="#000" stroke-width=".6"/><g fill="none" stroke="#00f" stroke-width=".2"><path d="m5 10h4.25" marker-start="url(#b)"/><path d="m15 10h-4.25" marker-start="url(#a)"/></g></svg>